<svg width="500" height="492" viewBox="0 0 500 492" fill="none" xmlns="http://www.w3.org/2000/svg">
<path fill-rule="evenodd" clip-rule="evenodd" d="M242.033 2.78439C240.029 4.15488 237.659 6.53098 236.096 8.71646C232.971 13.3997 227.034 21.2053 225.784 23.3908L224.847 24.3275C224.222 25.8885 222.247 28.9363 219.975 31.7744C194.961 67.1062 186.206 76.1737 155.877 108.066C126.799 138.395 96.76 167.518 58.3238 197.803C53.6337 200.93 50.206 203.526 49.2563 204.369C48.3067 205.212 47.3065 205.9 46.4423 206.558C44.9611 207.685 38.9371 212.5 37.0621 213.749C36.5934 214.061 31.2429 218.306 23.9299 223.129C9.23436 232.822 3.86679 235.115 1.73023 239.388C-2.33453 247.518 0.792205 253.771 10.7977 260.337C22.0539 267.529 19.4238 265.74 21.4286 267.216L22.3666 267.841C25.0905 269.846 31.5362 274.016 37.4673 278.437C44.1148 283.391 48.0189 286.792 51.0789 289.084C52.7671 290.349 51.1844 289.295 53.6112 290.876C55.405 292.045 55.9326 292.458 58.5705 294.25C60.6305 296.014 64.8793 299.509 68.3493 302.364L68.3504 302.365L69.122 303C91.3858 320.605 115.654 342.955 142.455 370.154C167.99 396.088 186.561 416.118 193.103 424.763C195.424 427.82 201.122 435.2 205.765 440.998C217.372 455.546 226.471 469.414 232.169 478.27C237.128 485.965 240.611 488.9 246.239 491.402C250.771 493.416 259.7 489.334 263.283 484.221C264.76 482.112 266.505 479.546 267.033 478.913C267.585 478.361 269.466 475.289 271.72 472.041C272.048 471.568 272.635 470.962 272.97 470.48C275.608 466.684 279.195 461.559 281.095 459.24C282.475 457.631 284.597 454.472 287.032 451.435C287.947 450.293 289.008 448.725 289.844 447.688C300.818 433.772 313.557 417.229 316.406 414.594C316.718 413.969 322.031 408.037 328.593 401.168C341.044 387.042 379.841 348.092 397.028 332.794C409.697 320.699 428.59 305.631 442.652 294.079C444.252 292.861 445.776 291.894 447.339 290.957C454.526 285.649 460.932 280.312 462.687 278.908L462.689 278.906L463.012 278.647C464.067 277.804 467.443 275.59 467.443 275.59L470.081 273.481C475.357 269.792 474.526 270.039 479.213 266.604C482.139 264.46 485.263 262.44 487.963 260.672C489.837 259.424 491.456 258.137 492.337 257.55C499.212 251.306 501.355 250.332 499.191 240.952C498.253 236.887 491.374 232.51 481.994 226.881C471.05 219.69 468.862 218.127 452.915 205.932C443.675 198.867 428.527 187.798 416.646 177.167C410.526 171.896 404.064 165.619 401.637 163.722C397.944 160.665 364.691 129.171 360.365 124.638C359.521 123.794 355.103 119.376 350.672 114.632C348.678 112.545 346.92 111.193 343.48 107.128C339.416 103.063 336.654 100.103 334.1 97.4354C323.469 86.8046 311.588 72.7343 305.647 65.5429C291.441 48.3459 275.943 25.8336 271.879 19.8928C269.346 16.0976 267.403 13.2281 266.876 12.7014C265.821 11.1197 265.957 11.6827 264.374 9.57465C262.264 6.41162 260.047 3.65906 255.932 1.44519C251.555 -1.05618 245.927 -0.118164 242.033 2.78439ZM276.402 72.5398C273.342 70.0093 267.597 66.6431 259.789 64.2184C246.81 60.1069 234.506 65.4917 222.319 73.6092C218.31 76.7719 214.84 79.4237 213.257 80.4779C210.302 82.3755 208.245 83.9366 201.07 90.1565C198.96 91.9487 194.629 95.2452 193.258 96.0886C182.008 105.143 147.869 137.998 137.634 148.54C118.885 167.853 112.948 175.078 104.47 184.927C100.46 189.566 97.9564 193.179 97.3233 193.811C96.6902 194.338 94.3283 197.42 92.3235 200.055C90.3187 202.691 87.3358 206.701 86.3862 207.861C79.0001 216.716 69.1181 230.385 67.3244 235.023C64.512 241.268 62.637 244.702 66.6994 255.005C67.568 257.208 68.8868 260.313 70.4493 263.123L73.5742 268.43L76.6991 273.113C77.7542 274.8 79.6981 277.983 81.3864 279.67C82.8636 281.673 83.241 282.354 84.8238 284.041C87.0112 286.372 117.635 324.316 137.322 341.176C181.383 387.071 228.256 424.977 241.068 426.722C247.943 427.659 252.631 432.654 272.63 418.605C274.107 417.445 280.572 413.042 286.692 408.614C292.812 404.186 297.625 399.981 297.942 399.56C298.258 399.243 300.754 397.686 303.879 394.564C307.361 391.823 310.539 389.265 311.066 388.632C311.699 388 317.056 383.264 321.066 379.89C337.94 365.693 368.877 337.117 392.626 309.33C394.42 307.116 398.32 302.607 401.063 299.339C405.811 294.068 418.538 279.078 420.437 276.548C428.984 264.635 435.011 256.862 435.749 250.01C436.066 245.898 435.894 240.484 433.256 234.897C431.463 231.207 428.93 226.78 427.559 224.987C409.813 198.182 390.414 178.278 384.189 172.269C383.344 171.425 379.85 167.837 377.001 164.463C370.127 156.97 342.057 128.495 332.683 119.441C328.568 115.751 323.552 111.034 320.176 107.872C316.799 104.709 313.297 101.617 312.672 100.68C311.722 100.153 305.929 96.2262 303.292 93.8015C296.539 87.7924 284.336 78.0697 283.281 77.5426C281.698 76.4883 278.09 73.6991 276.402 72.5398Z" fill="white"/>
<path d="M241.693 76.1086C237.943 77.0452 228.256 85.1628 216.382 93.5926C208.569 99.5246 207.816 100.33 205.444 102.023C203.318 103.54 202.632 104.208 199.82 106.394C199.195 106.706 195.757 109.516 192.945 112.013C190.132 114.511 188.633 115.534 187.32 117.009C186.476 117.958 181.022 122.685 176.695 126.375C159.509 140.737 127.635 174.144 118.26 184.447C114.778 188.558 111.3 193.169 109.823 194.75C104.864 200.021 88.3218 220.368 83.5736 227.22C74.5114 238.147 74.1634 248.899 81.2329 260.285C86.8252 269.14 111.938 299.185 126.816 314.788C133.252 321.429 143.884 332.533 143.884 332.748C153.884 343.988 196.382 381.765 210.132 392.693C241.454 417.586 238.256 415.797 252.943 416.733C258.88 415.797 261.38 414.548 280.754 399.874C294.191 389.883 295.807 387.933 307.941 377.707C314.191 372.087 321.427 366.001 325.753 361.784C331.378 356.788 337.798 350.577 340.752 348.046C354.189 337.119 379.189 309.644 388.876 298.405C390.564 296.085 394.188 292.16 394.501 291.848C395.125 291.224 403.944 280.548 406.688 277.174C410.75 271.554 416.375 266.247 421.687 255.944C424.536 250.04 424.751 240.519 421.375 234.089C417.682 227.025 393.522 197.434 380.439 182.886C376.534 178.563 369.749 172.315 366.689 168.836C354.555 155.237 336.74 138.117 303.291 108.81C284.844 94.4269 268.897 82.1664 261.706 77.8554C253.894 73.1722 248.568 72.9865 241.693 76.1086ZM260.293 115.75C271.689 137.889 277.386 149.486 278.125 151.594C278.653 153.175 278.02 153.492 273.693 153.492C265.569 153.492 266.518 150.434 264.091 188.281C263.458 197.875 262.72 208.1 262.298 211.052C262.298 215.692 262.005 216.94 262.63 218.189C264.424 219.665 280.974 220.329 282.557 219.17C284.139 218.01 290.365 201.986 290.365 199.034C290.365 197.137 289.732 196.715 287.305 196.715C283.19 196.715 277.703 195.555 277.703 194.712C277.703 194.29 279.602 192.603 282.029 190.811C284.35 189.124 288.149 186.278 290.365 184.591C302.605 175.103 313.473 167.302 316.638 165.615C316.638 165.615 319.839 163.547 320.226 163.823C320.612 164.099 320.542 164.561 320.226 166.142C319.909 167.724 319.909 168.251 319.909 168.251C319.487 170.781 318.327 174.365 317.799 176.157C317.271 177.844 315.478 183.853 313.789 189.335C312.101 194.817 309.569 203.356 308.303 208.311C303.449 226.655 298.068 242.784 296.59 243.733C296.063 244.049 290.154 243.522 283.295 242.574C276.542 241.73 268.734 240.992 265.991 240.992C261.137 240.992 261.032 240.992 260.398 244.893C260.082 247.107 259.449 263.025 259.132 280.209L258.71 310.571H262.403C277.175 310.044 302.288 305.194 313.473 299.712C320.753 296.128 326.24 290.014 326.24 285.586C327.295 281.053 319.108 275.4 313.473 272.619C312.628 272.202 311.758 270.759 308.566 272.619C302.316 276.261 303.566 276.261 300.754 276.885C298.566 277.371 295.892 271.038 293.254 265.766C286.923 251.007 290.737 252.426 296.59 253.157C300.811 253.684 326.573 262.406 327.628 263.46C328.462 264.294 326.378 264.397 324.503 265.021C322.628 265.646 323.253 265.333 322.547 265.766C321.841 266.199 324.341 267.242 325.291 267.875C337.847 275.676 340.485 279.471 340.485 287.589C340.485 291.595 339.957 293.703 335.315 298.869C324.657 309.728 305.559 317.423 273.482 321.113C265.569 322.023 258.685 322.781 257.63 322.781C257.63 323.308 257.127 334.186 256.494 348.101C254.505 399.585 253.568 399.585 251.693 400.21C245.756 401.146 247.318 399.585 245.626 378.252C245.31 367.394 244.677 350.104 244.36 339.773L243.568 322.468C243.568 322.468 237.318 322.031 234.969 321.64C232.62 321.249 232.652 321.354 230.749 321.113C228.845 320.872 226.95 320.692 223.785 320.164C220.619 319.637 214.816 318.583 210.701 317.951C203.631 316.685 199.727 315.842 190.653 313.523C182.844 311.52 165.54 303.929 161.214 300.556C154.777 295.706 152.139 291.173 152.139 285.059C152.139 278.206 154.566 273.462 160.581 268.191C169.549 260.495 191.18 250.48 198.883 250.48C199.094 250.48 204.581 252.589 208.59 255.224C212.705 257.86 217.032 260.39 218.403 261.022C219.669 261.55 221.252 262.604 220.725 263.553C219.669 264.712 218.72 265.977 209.118 269.035C200.677 271.565 196.456 273.989 191.497 278.733C179.362 290.541 187.804 299.923 217.032 306.881C221.147 307.83 226 308.462 228.111 308.99C230.115 309.411 231.276 309.517 235.497 310.044C239.717 310.571 242.777 310.571 242.777 310.571V298.658C242.672 292.227 242.144 276.625 241.511 264.185C241.511 264.185 241.511 242.574 240.245 241.519C238.979 240.465 234.969 240.988 234.969 240.988C234.969 240.988 224.101 241.625 217.243 242.574C209.118 243.733 203.842 244.155 203.737 243.417C202.259 241.519 196.35 222.438 193.713 211.474C192.868 207.679 191.708 204.094 191.286 202.513C190.237 198.583 184.533 180.691 181.895 171.203C180.101 159.817 179.573 160.664 189.175 167.829C192.938 170.637 197.042 174.049 197.195 174.154C198.566 175.103 200.149 176.157 202.259 177.739C204.37 179.32 205.952 180.48 206.48 180.901C209.177 183.058 208.696 182.694 209.118 183.01C211.756 185.118 223.046 194.712 222.413 195.45C222.096 195.661 219.353 196.188 216.293 196.609C209.751 197.347 209.751 197.347 213.972 209.682C216.187 216.323 217.348 218.116 219.564 219.064C222.413 220.119 235.391 219.697 237.502 218.432C238.979 217.483 238.979 211.158 237.607 190.917C235.708 164.245 234.653 155.284 233.175 154.44C232.437 153.913 229.799 153.492 227.267 153.492H222.624L223.362 150.013C223.785 148.221 225.473 144.215 227.055 141.368C229.482 136.94 240.773 115.329 247.526 102.046C248.581 100.148 249.952 98.6721 250.585 98.8829C251.324 99.0938 255.65 106.684 260.293 115.75Z" fill="white"/>
</svg>
