<svg width="463" height="80" viewBox="0 0 463 80" fill="none" xmlns="http://www.w3.org/2000/svg">
<path fill-rule="evenodd" clip-rule="evenodd" d="M38.7254 1.15375C38.4046 1.37303 38.0254 1.7532 37.7754 2.10288C37.2754 2.85219 36.3254 4.1011 36.1255 4.45078L35.9755 4.60064C35.8755 4.85041 35.5596 5.33806 35.196 5.79215C31.1938 11.4452 29.793 12.896 24.9404 17.9988C20.2878 22.8515 15.4816 27.5112 9.33181 32.3567C8.5814 32.857 8.03295 33.2724 7.88101 33.4073C7.72907 33.5422 7.56904 33.6522 7.43076 33.7575C7.19378 33.9379 6.22993 34.7083 5.92994 34.9081C5.85494 34.9581 4.99886 35.6372 3.82879 36.409C1.4775 37.9598 0.618686 38.3267 0.276836 39.0104C-0.373524 40.3111 0.126753 41.3116 1.72764 42.3622C3.52862 43.5128 3.1078 43.2267 3.42857 43.4628L3.57865 43.5629C4.01448 43.8835 5.04579 44.5507 5.99478 45.2581C7.05837 46.0509 7.68302 46.5949 8.17262 46.9617C8.44274 47.1641 8.1895 46.9954 8.5778 47.2485C8.8648 47.4355 8.94921 47.5014 9.37128 47.7882C9.70088 48.0705 10.3807 48.6298 10.9359 49.0865L10.9361 49.0867L11.0595 49.1882C14.6217 52.0051 18.5047 55.581 22.7929 59.9329C26.8784 64.0823 29.8498 67.2871 30.8965 68.6703C31.2679 69.1594 32.1795 70.3402 32.9224 71.2679C34.7794 73.5956 36.2354 75.8145 37.1471 77.2314C37.9406 78.4627 38.4978 78.9323 39.3983 79.3325C40.1234 79.6548 41.552 79.0017 42.1252 78.1836C42.3616 77.8462 42.6408 77.4356 42.7252 77.3344C42.8137 77.246 43.1145 76.7545 43.4752 76.2348C43.5277 76.1592 43.6216 76.0621 43.6752 75.985C44.0973 75.3778 44.6713 74.5577 44.9751 74.1866C45.196 73.9292 45.5355 73.4238 45.9251 72.9378C46.0716 72.7551 46.2413 72.5043 46.3751 72.3383C48.1309 70.1118 50.1691 67.4649 50.625 67.0432C50.675 66.9433 51.5249 65.9942 52.5749 64.8952C54.567 62.6349 60.7746 56.403 63.5245 53.9552C65.5515 52.02 68.5743 49.6092 70.8243 47.7609C71.0803 47.5659 71.3242 47.4112 71.5742 47.2614C72.7242 46.4122 73.7491 45.5581 74.0298 45.3335L74.0303 45.3331L74.0819 45.2918C74.2507 45.1569 74.791 44.8026 74.791 44.8026L75.213 44.4653C76.0572 43.8749 75.9241 43.9145 76.6741 43.365C77.1423 43.0219 77.642 42.6987 78.074 42.4158C78.374 42.216 78.6329 42.0102 78.774 41.9163C79.8739 40.9172 80.2169 40.7613 79.8705 39.2605C79.7205 38.6102 78.6198 37.9098 77.119 37.0093C75.3681 35.8587 75.0179 35.6085 72.4665 33.6574C70.9881 32.5269 68.5643 30.7558 66.6633 29.0549C65.6841 28.2115 64.6503 27.2073 64.262 26.9037C63.6711 26.4146 58.3505 21.3756 57.6583 20.6503C57.5233 20.5154 56.8166 19.8085 56.1075 19.0494C55.7884 18.7154 55.5072 18.4991 54.9569 17.8488C54.3065 17.1984 53.8646 16.7247 53.456 16.2979C51.7551 14.597 49.8541 12.3457 48.9035 11.1951C46.6306 8.4436 44.1509 4.84162 43.5006 3.8911C43.0954 3.28387 42.7845 2.82475 42.7001 2.74047C42.5313 2.4874 42.5531 2.57749 42.2999 2.2402C41.9623 1.73411 41.6076 1.2937 40.9492 0.939481C40.2488 0.539262 39.3483 0.689344 38.7254 1.15375ZM44.2243 12.3146C43.7347 11.9097 42.8155 11.3711 41.5662 10.9832C39.4897 10.3254 37.521 11.1869 35.5711 12.4857C34.9295 12.9918 34.3743 13.416 34.1211 13.5847C33.6484 13.8883 33.3192 14.1381 32.1712 15.1333C31.8335 15.42 31.1407 15.9475 30.9212 16.0824C29.1213 17.5311 23.6591 22.788 22.0215 24.4747C19.0216 27.5647 18.0716 28.7208 16.7152 30.2966C16.0736 31.0387 15.673 31.6168 15.5717 31.718C15.4704 31.8024 15.0925 32.2954 14.7718 32.7171C14.451 33.1388 13.9737 33.7804 13.8218 33.966C12.64 35.3829 11.0589 37.5698 10.7719 38.312C10.3219 39.3111 10.0219 39.8606 10.6719 41.509C10.8109 41.8615 11.0219 42.3583 11.2719 42.8078L11.7719 43.6571L12.2719 44.4064C12.4407 44.6763 12.7517 45.1855 13.0218 45.4554C13.2582 45.7758 13.3186 45.8848 13.5718 46.1548C13.9218 46.5278 18.8216 52.5989 21.9715 55.2964C29.0213 62.6396 36.521 68.7045 38.571 68.9838C39.6709 69.1337 40.4209 69.9329 43.6208 67.685C43.8571 67.4995 44.8915 66.7949 45.8707 66.0865C46.8499 65.378 47.62 64.7053 47.6706 64.6378C47.7213 64.5872 48.1206 64.3381 48.6206 63.8385C49.1777 63.4 49.6862 62.9906 49.7706 62.8894C49.8719 62.7882 50.729 62.0304 51.3705 61.4907C54.0704 59.2191 59.0202 54.647 62.8201 50.2011C63.1071 49.8468 63.7311 49.1254 64.1701 48.6025C64.9298 47.7592 66.9661 45.3607 67.27 44.9559C68.6375 43.0498 69.6017 41.8062 69.7199 40.7098C69.7705 40.0519 69.7431 39.1858 69.321 38.2918C69.034 37.7014 68.6288 36.993 68.4094 36.7062C65.57 32.4174 62.4662 29.2327 61.4702 28.2712C61.3351 28.1363 60.776 27.5621 60.3202 27.0224C59.2202 25.8235 54.7292 21.2674 53.2292 19.8187C52.5708 19.2284 51.7684 18.4738 51.2281 17.9677C50.6879 17.4617 50.1275 16.967 50.0275 16.8171C49.8755 16.7328 48.9487 16.1044 48.5266 15.7165C47.4462 14.755 45.4937 13.1994 45.3249 13.1151C45.0716 12.9464 44.4944 12.5001 44.2243 12.3146Z" fill="white"/>
<path d="M38.6709 12.8856C38.071 13.0355 36.521 14.3343 34.6211 15.6831C33.3711 16.6322 33.2505 16.7611 32.8711 17.0319C32.5308 17.2747 32.4211 17.3815 31.9712 17.7312C31.8712 17.7812 31.3212 18.2308 30.8712 18.6304C30.4212 19.03 30.1812 19.1936 29.9712 19.4297C29.8362 19.5815 28.9635 20.3379 28.2713 20.9283C25.5214 23.2262 20.4216 28.5713 18.9216 30.2197C18.3645 30.8776 17.808 31.6152 17.5717 31.8682C16.7782 32.7116 14.1315 35.9671 13.3718 37.0634C11.9218 38.8118 11.8662 40.5321 12.9973 42.3538C13.8921 43.7706 17.9101 48.5779 20.2905 51.0743C21.3204 52.137 23.0214 53.9135 23.0215 53.9479C24.6214 55.7463 31.4212 61.7907 33.6211 63.5391C38.6326 67.522 38.121 67.2357 40.4709 67.3856C41.4208 67.2357 41.8208 67.0359 44.9207 64.6881C47.0706 63.0895 47.3291 62.7775 49.2706 61.1413C50.2705 60.2421 51.4283 59.2684 52.1205 58.5937C53.0204 57.7944 54.0477 56.8005 54.5204 56.3957C56.6703 54.6473 60.6702 50.2513 62.2201 48.453C62.4902 48.0819 63.0701 47.4539 63.1201 47.4039C63.2201 47.304 64.6311 45.5959 65.07 45.0561C65.72 44.1569 66.62 43.3077 67.4699 41.6592C67.9258 40.7146 67.9602 39.1914 67.42 38.1624C66.8291 37.0323 62.9636 32.2977 60.8702 29.97C60.2455 29.2784 59.1598 28.2787 58.6702 27.722C56.7288 25.5461 53.8784 22.807 48.5266 18.1178C45.575 15.8166 43.0236 13.8549 41.873 13.1651C40.623 12.4158 39.7709 12.3861 38.6709 12.8856ZM41.6469 19.2283C43.4702 22.7705 44.3818 24.626 44.5 24.9633C44.5844 25.2163 44.4831 25.2669 43.791 25.2669C42.491 25.2669 42.6429 24.7778 42.2546 30.8332C42.1534 32.3682 42.0352 34.0043 41.9677 34.4766C41.9677 35.2189 41.9208 35.4187 42.0208 35.6185C42.3078 35.8547 44.9558 35.961 45.2091 35.7754C45.4623 35.5899 46.4584 33.026 46.4584 32.5537C46.4584 32.2501 46.3571 32.1826 45.9688 32.1826C45.3104 32.1826 44.4325 31.9971 44.4325 31.8621C44.4325 31.7947 44.7364 31.5248 45.1247 31.238C45.4961 30.9682 46.1039 30.5127 46.4584 30.2429C48.4168 28.7248 50.1557 27.4766 50.6621 27.2067C50.6621 27.2067 51.1743 26.8758 51.2361 26.9199C51.298 26.9641 51.2868 27.038 51.2361 27.291C51.1855 27.544 51.1855 27.6284 51.1855 27.6284C51.118 28.0332 50.9323 28.6067 50.8478 28.8934C50.7634 29.1633 50.4764 30.1248 50.2063 31.0019C49.9362 31.879 49.531 33.2453 49.3284 34.0381C48.5518 36.973 47.6908 39.5538 47.4545 39.7056C47.37 39.7562 46.4246 39.6718 45.3273 39.52C44.2468 39.3851 42.9975 39.267 42.5585 39.267C41.7819 39.267 41.7651 39.267 41.6638 39.8911C41.6131 40.2453 41.5118 42.7923 41.4612 45.5417L41.3936 50.3996H41.9845C44.3481 50.3153 48.3661 49.5394 50.1557 48.6622C51.3206 48.0887 52.1984 47.1104 52.1984 46.402C52.3673 45.6767 51.0573 44.7722 50.1557 44.3273C50.0206 44.2606 49.8812 44.0297 49.3706 44.3273C48.3706 44.91 48.5706 44.91 48.1206 45.0099C47.7706 45.0876 47.3427 44.0742 46.9207 43.2309C45.9077 40.8694 46.518 41.0964 47.4545 41.2134C48.1298 41.2977 52.2517 42.6932 52.4205 42.8619C52.5539 42.9952 52.2205 43.0117 51.9205 43.1116C51.6205 43.2116 51.7205 43.1616 51.6076 43.2309C51.4946 43.3001 51.8946 43.467 52.0465 43.5682C54.0555 44.8164 54.4776 45.4237 54.4776 46.7225C54.4776 47.3634 54.3932 47.7008 53.6503 48.5273C51.9452 50.2647 48.8895 51.496 43.7572 52.0863C42.491 52.232 41.3897 52.3532 41.2209 52.3532C41.2209 52.4375 41.1404 54.1779 41.0391 56.4045C40.7209 64.6419 40.5709 64.6419 40.2709 64.7418C39.3209 64.8916 39.5709 64.6419 39.3002 61.2286C39.2496 59.4912 39.1483 56.7249 39.0976 55.0719L38.9709 52.3032C38.9709 52.3032 37.971 52.2333 37.5951 52.1707C37.2192 52.1081 37.2243 52.1249 36.9198 52.0863C36.6153 52.0478 36.312 52.0189 35.8055 51.9346C35.2991 51.8502 34.3705 51.6815 33.7121 51.5803C32.581 51.3779 31.9563 51.243 30.5044 50.8719C29.2551 50.5514 26.4864 49.3369 25.7942 48.7972C24.7644 48.0213 24.3423 47.296 24.3423 46.3176C24.3423 45.2213 24.7306 44.4622 25.6929 43.6188C27.1279 42.3875 30.5888 40.7851 31.8213 40.7851C31.855 40.7851 32.7329 41.1224 33.3745 41.5441C34.0329 41.9658 34.7251 42.3706 34.9445 42.4718C35.1471 42.5562 35.4004 42.7248 35.3159 42.8767C35.1471 43.0622 34.9952 43.2646 33.4589 43.7538C32.1083 44.1586 31.433 44.5466 30.6395 45.3056C28.698 47.1948 30.0486 48.696 34.7251 49.8092C35.3835 49.961 36.1601 50.0622 36.4977 50.1466C36.8185 50.214 37.0042 50.2309 37.6795 50.3153C38.3548 50.3996 38.8444 50.3996 38.8444 50.3996V48.4936C38.8275 47.4646 38.7431 44.9682 38.6418 42.9779C38.6418 42.9779 38.6418 39.52 38.4392 39.3513C38.2366 39.1827 37.5951 39.2663 37.5951 39.2663C37.5951 39.2663 35.8562 39.3682 34.7588 39.52C33.4589 39.7056 32.6147 39.773 32.5979 39.655C32.3615 39.3513 31.4161 36.2983 30.994 34.5441C30.859 33.9369 30.6733 33.3633 30.6057 33.1103C30.4379 32.4815 29.5252 29.6188 29.1032 28.1007C28.8162 26.279 28.7318 26.4146 30.2681 27.5609C30.8701 28.0101 31.5267 28.5561 31.5511 28.573C31.7706 28.7248 32.0239 28.8934 32.3615 29.1465C32.6992 29.3995 32.9524 29.585 33.0368 29.6525C33.4684 29.9975 33.3913 29.9392 33.4589 29.9898C33.8809 30.3272 35.6874 31.8621 35.5861 31.9802C35.5354 32.0139 35.0965 32.0983 34.6069 32.1658C33.5602 32.2838 33.5602 32.2838 34.2355 34.2573C34.59 35.32 34.7757 35.6067 35.1302 35.7586C35.5861 35.9272 37.6626 35.8598 38.0003 35.6573C38.2366 35.5055 38.2366 34.4935 38.0171 31.2549C37.7133 26.9874 37.5444 25.5537 37.3081 25.4187C37.1899 25.3344 36.7678 25.2669 36.3627 25.2669H35.6198L35.738 24.7103C35.8055 24.4235 36.0757 23.7826 36.3289 23.3271C36.7172 22.6187 38.5236 19.1609 39.6041 17.0355C39.7729 16.7319 39.9924 16.4958 40.0937 16.5295C40.2119 16.5633 40.904 17.7777 41.6469 19.2283Z" fill="white"/>
<path d="M94.2 19.5624H106.08V61.5624H94.2V19.5624ZM148.252 52.3824V61.5624H114.532V19.5624H147.472V28.7424H126.292V35.8224H144.952V44.7024H126.292V52.3824H148.252ZM188.565 52.3824V61.5624H154.845V19.5624H187.785V28.7424H166.605V35.8224H185.265V44.7024H166.605V52.3824H188.565ZM228.877 52.3824V61.5624H195.157V19.5624H228.097V28.7424H206.917V35.8224H225.577V44.7024H206.917V52.3824H228.877Z" fill="white"/>
<path d="M257.75 29.2024C260.53 29.2024 263 29.7724 265.16 30.9124C267.34 32.0524 269.03 33.6124 270.23 35.5924C271.45 37.5724 272.06 39.7824 272.06 42.2224C272.06 44.0224 271.77 45.5724 271.19 46.8724C270.63 48.1524 269.85 49.1324 268.85 49.8124C267.87 50.4724 266.74 50.8024 265.46 50.8024C264.4 50.8024 263.49 50.5824 262.73 50.1424C261.97 49.7024 261.41 49.0524 261.05 48.1924C260.07 49.9324 258.45 50.8024 256.19 50.8024C255.01 50.8024 253.91 50.4924 252.89 49.8724C251.87 49.2324 251.05 48.3424 250.43 47.2024C249.83 46.0624 249.53 44.7524 249.53 43.2724C249.53 41.7924 249.83 40.4824 250.43 39.3424C251.03 38.2024 251.84 37.3224 252.86 36.7024C253.88 36.0824 254.99 35.7724 256.19 35.7724C257.95 35.7724 259.34 36.3424 260.36 37.4824V36.0124H265.25V45.1624C265.25 45.8024 265.37 46.2624 265.61 46.5424C265.85 46.8224 266.17 46.9624 266.57 46.9624C267.83 46.9624 268.46 45.4124 268.46 42.3124C268.46 40.4124 268.01 38.7224 267.11 37.2424C266.23 35.7624 264.98 34.6124 263.36 33.7924C261.74 32.9524 259.87 32.5324 257.75 32.5324C255.65 32.5324 253.78 32.9824 252.14 33.8824C250.52 34.7824 249.26 36.0324 248.36 37.6324C247.46 39.2124 247.01 40.9924 247.01 42.9724C247.01 44.9924 247.45 46.8024 248.33 48.4024C249.21 50.0024 250.45 51.2424 252.05 52.1224C253.67 53.0224 255.53 53.4724 257.63 53.4724C259.77 53.4724 261.76 53.0324 263.6 52.1524L264.71 55.3624C263.81 55.8024 262.72 56.1524 261.44 56.4124C260.18 56.6724 258.91 56.8024 257.63 56.8024C254.73 56.8024 252.17 56.2024 249.95 55.0024C247.75 53.8024 246.04 52.1524 244.82 50.0524C243.62 47.9524 243.02 45.5924 243.02 42.9724C243.02 40.3724 243.63 38.0324 244.85 35.9524C246.07 33.8524 247.79 32.2024 250.01 31.0024C252.25 29.8024 254.83 29.2024 257.75 29.2024ZM257.48 46.7224C258.36 46.7224 259.07 46.4224 259.61 45.8224C260.17 45.2224 260.45 44.3724 260.45 43.2724C260.45 42.1924 260.17 41.3524 259.61 40.7524C259.07 40.1524 258.36 39.8524 257.48 39.8524C256.6 39.8524 255.89 40.1524 255.35 40.7524C254.81 41.3524 254.54 42.1924 254.54 43.2724C254.54 44.3524 254.81 45.2024 255.35 45.8224C255.89 46.4224 256.6 46.7224 257.48 46.7224Z" fill="white"/>
<path d="M307.7 62.1624C301.9 62.1624 297.38 60.5424 294.14 57.3024C290.9 54.0224 289.28 49.3424 289.28 43.2624V19.5624H297.08V42.9624C297.08 51.2024 300.64 55.3224 307.76 55.3224C314.84 55.3224 318.38 51.2024 318.38 42.9624V19.5624H326.06V43.2624C326.06 49.3424 324.44 54.0224 321.2 57.3024C318 60.5424 313.5 62.1624 307.7 62.1624ZM356.424 62.1624C352.184 62.1624 348.344 61.2424 344.904 59.4024C341.504 57.5224 338.824 54.9424 336.864 51.6624C334.944 48.3824 333.984 44.6824 333.984 40.5624C333.984 36.4424 334.964 32.7424 336.924 29.4624C338.884 26.1824 341.564 23.6224 344.964 21.7824C348.404 19.9024 352.244 18.9624 356.484 18.9624C359.924 18.9624 363.064 19.5624 365.904 20.7624C368.744 21.9624 371.144 23.7024 373.104 25.9824L368.064 30.7224C365.024 27.4424 361.284 25.8024 356.844 25.8024C353.964 25.8024 351.384 26.4424 349.104 27.7224C346.824 28.9624 345.044 30.7024 343.764 32.9424C342.484 35.1824 341.844 37.7224 341.844 40.5624C341.844 43.4024 342.484 45.9424 343.764 48.1824C345.044 50.4224 346.824 52.1824 349.104 53.4624C351.384 54.7024 353.964 55.3224 356.844 55.3224C361.284 55.3224 365.024 53.6624 368.064 50.3424L373.104 55.1424C371.144 57.4224 368.724 59.1624 365.844 60.3624C363.004 61.5624 359.864 62.1624 356.424 62.1624ZM393.363 62.1624C390.123 62.1624 386.983 61.7024 383.943 60.7824C380.943 59.8624 378.563 58.6424 376.803 57.1224L379.503 51.0624C381.223 52.4224 383.323 53.5424 385.803 54.4224C388.323 55.2624 390.843 55.6824 393.363 55.6824C396.483 55.6824 398.803 55.1824 400.323 54.1824C401.883 53.1824 402.663 51.8624 402.663 50.2224C402.663 49.0224 402.223 48.0424 401.343 47.2824C400.503 46.4824 399.423 45.8624 398.103 45.4224C396.783 44.9824 394.983 44.4824 392.703 43.9224C389.503 43.1624 386.903 42.4024 384.903 41.6424C382.943 40.8824 381.243 39.7024 379.803 38.1024C378.403 36.4624 377.703 34.2624 377.703 31.5024C377.703 29.1824 378.323 27.0824 379.563 25.2024C380.843 23.2824 382.743 21.7624 385.263 20.6424C387.823 19.5224 390.943 18.9624 394.623 18.9624C397.183 18.9624 399.703 19.2824 402.183 19.9224C404.663 20.5624 406.803 21.4824 408.603 22.6824L406.143 28.7424C404.303 27.6624 402.383 26.8424 400.383 26.2824C398.383 25.7224 396.443 25.4424 394.563 25.4424C391.483 25.4424 389.183 25.9624 387.663 27.0024C386.183 28.0424 385.443 29.4224 385.443 31.1424C385.443 32.3424 385.863 33.3224 386.703 34.0824C387.583 34.8424 388.683 35.4424 390.003 35.8824C391.323 36.3224 393.123 36.8224 395.403 37.3824C398.523 38.1024 401.083 38.8624 403.083 39.6624C405.083 40.4224 406.783 41.6024 408.183 43.2024C409.623 44.8024 410.343 46.9624 410.343 49.6824C410.343 52.0024 409.703 54.1024 408.423 55.9824C407.183 57.8624 405.283 59.3624 402.723 60.4824C400.163 61.6024 397.043 62.1624 393.363 62.1624ZM418.078 19.5624H436.438C440.918 19.5624 444.898 20.4424 448.378 22.2024C451.858 23.9224 454.558 26.3824 456.478 29.5824C458.398 32.7424 459.358 36.4024 459.358 40.5624C459.358 44.7224 458.398 48.4024 456.478 51.6024C454.558 54.7624 451.858 57.2224 448.378 58.9824C444.898 60.7024 440.918 61.5624 436.438 61.5624H418.078V19.5624ZM436.078 54.9624C439.158 54.9624 441.858 54.3824 444.178 53.2224C446.538 52.0224 448.338 50.3424 449.578 48.1824C450.858 45.9824 451.498 43.4424 451.498 40.5624C451.498 37.6824 450.858 35.1624 449.578 33.0024C448.338 30.8024 446.538 29.1224 444.178 27.9624C441.858 26.7624 439.158 26.1624 436.078 26.1624H425.878V54.9624H436.078Z" fill="white"/>
</svg>
