<svg width="500" height="492" viewBox="0 0 500 492" fill="none" xmlns="http://www.w3.org/2000/svg">
<path fill-rule="evenodd" clip-rule="evenodd" d="M242.033 2.78458C240.029 4.15506 237.659 6.53116 236.096 8.71664C232.971 13.3998 227.034 21.2055 225.784 23.391L224.847 24.3276C224.222 25.8887 222.247 28.9365 219.975 31.7745C194.961 67.1064 186.206 76.1739 155.877 108.066C126.799 138.396 96.76 167.518 58.3238 197.803C53.6337 200.93 50.206 203.526 49.2563 204.369C48.3067 205.213 47.3065 205.9 46.4423 206.558C44.9611 207.686 38.9371 212.501 37.0621 213.749C36.5934 214.062 31.2429 218.306 23.9299 223.13C9.23436 232.822 3.86679 235.115 1.73023 239.389C-2.33453 247.518 0.792205 253.771 10.7977 260.338C22.0539 267.529 19.4238 265.74 21.4286 267.216L22.3666 267.842C25.0905 269.846 31.5362 274.016 37.4673 278.437C44.1148 283.392 48.0189 286.792 51.0789 289.084C52.7671 290.349 51.1844 289.295 53.6112 290.877C55.405 292.046 55.9326 292.458 58.5705 294.25C60.6305 296.014 64.8793 299.51 68.3493 302.364L68.3504 302.365L69.122 303C91.3858 320.606 115.654 342.955 142.455 370.154C167.99 396.088 186.561 416.118 193.103 424.763C195.424 427.82 201.122 435.2 205.765 440.998C217.372 455.546 226.471 469.414 232.169 478.27C237.128 485.966 240.611 488.9 246.239 491.402C250.771 493.416 259.7 489.334 263.283 484.221C264.76 482.113 266.505 479.546 267.033 478.914C267.585 478.361 269.466 475.289 271.72 472.041C272.048 471.568 272.635 470.962 272.97 470.48C275.608 466.685 279.195 461.559 281.095 459.24C282.475 457.631 284.597 454.472 287.032 451.435C287.947 450.293 289.008 448.725 289.844 447.688C300.818 433.773 313.557 417.229 316.406 414.594C316.718 413.969 322.031 408.037 328.593 401.169C341.044 387.042 379.841 348.092 397.028 332.794C409.697 320.699 428.59 305.631 442.652 294.079C444.252 292.861 445.776 291.894 447.339 290.957C454.526 285.65 460.932 280.312 462.687 278.908L462.689 278.906L463.012 278.648C464.067 277.804 467.443 275.59 467.443 275.59L470.081 273.482C475.357 269.792 474.526 270.039 479.213 266.605C482.139 264.46 485.263 262.441 487.963 260.673C489.837 259.424 491.456 258.138 492.337 257.55C499.212 251.306 501.355 250.332 499.191 240.952C498.253 236.887 491.374 232.51 481.994 226.882C471.05 219.69 468.862 218.127 452.915 205.933C443.675 198.867 428.527 187.798 416.646 177.167C410.526 171.896 404.064 165.62 401.637 163.722C397.944 160.665 364.691 129.171 360.365 124.638C359.521 123.795 355.103 119.377 350.672 114.633C348.678 112.545 346.92 111.193 343.48 107.128C339.416 103.064 336.654 100.103 334.1 97.4356C323.469 86.8047 311.588 72.7345 305.647 65.5431C291.441 48.3461 275.943 25.8338 271.879 19.893C269.346 16.0978 267.403 13.2283 266.876 12.7016C265.821 11.1199 265.957 11.6829 264.374 9.57483C262.264 6.4118 260.047 3.65924 255.932 1.44537C251.555 -1.056 245.927 -0.117981 242.033 2.78458ZM276.402 72.54C273.342 70.0095 267.597 66.6433 259.789 64.2186C246.81 60.1071 234.506 65.4919 222.319 73.6094C218.31 76.7721 214.84 79.4239 213.257 80.4781C210.302 82.3757 208.245 83.9368 201.07 90.1567C198.96 91.9489 194.629 95.2454 193.258 96.0887C182.008 105.143 147.869 137.998 137.634 148.541C118.885 167.853 112.948 175.079 104.47 184.927C100.46 189.566 97.9564 193.179 97.3233 193.811C96.6902 194.339 94.3283 197.42 92.3235 200.056C90.3187 202.691 87.3358 206.701 86.3862 207.861C79.0001 216.716 69.1181 230.385 67.3244 235.024C64.512 241.268 62.637 244.702 66.6994 255.005C67.568 257.208 68.8868 260.313 70.4493 263.123L73.5742 268.43L76.6991 273.114C77.7542 274.8 79.6981 277.983 81.3864 279.67C82.8636 281.673 83.241 282.354 84.8238 284.041C87.0112 286.373 117.635 324.316 137.322 341.176C181.383 387.071 228.256 424.977 241.068 426.722C247.943 427.659 252.631 432.654 272.63 418.605C274.107 417.445 280.572 413.042 286.692 408.614C292.812 404.186 297.625 399.982 297.942 399.56C298.258 399.244 300.754 397.687 303.879 394.564C307.361 391.823 310.539 389.265 311.066 388.632C311.699 388 317.056 383.264 321.066 379.89C337.94 365.693 368.877 337.117 392.626 309.33C394.42 307.116 398.32 302.608 401.063 299.339C405.811 294.068 418.538 279.078 420.437 276.548C428.984 264.635 435.011 256.862 435.749 250.01C436.066 245.898 435.894 240.485 433.256 234.897C431.463 231.208 428.93 226.78 427.559 224.988C409.813 198.182 390.414 178.278 384.189 172.269C383.344 171.425 379.85 167.837 377.001 164.463C370.127 156.97 342.057 128.495 332.683 119.441C328.568 115.751 323.552 111.035 320.176 107.872C316.799 104.709 313.297 101.617 312.672 100.68C311.722 100.153 305.929 96.2264 303.292 93.8017C296.539 87.7926 284.336 78.0699 283.281 77.5428C281.698 76.4885 278.09 73.6992 276.402 72.54Z" fill="#003C73"/>
<path d="M241.693 76.1088C237.944 77.0455 228.256 85.163 216.382 93.5928C208.57 99.5248 207.816 100.331 205.445 102.023C203.318 103.541 202.632 104.208 199.82 106.394C199.195 106.706 195.758 109.516 192.945 112.014C190.133 114.511 188.633 115.534 187.32 117.009C186.476 117.958 181.022 122.686 176.696 126.375C159.509 140.737 127.635 174.144 118.26 184.447C114.778 188.558 111.3 193.169 109.823 194.75C104.864 200.021 88.3221 220.368 83.5739 227.22C74.5117 238.148 74.1636 248.899 81.2332 260.285C86.8255 269.14 111.938 299.186 126.816 314.788C133.252 321.43 143.884 332.533 143.884 332.748C153.884 343.988 196.383 381.766 210.132 392.693C241.454 417.586 238.256 415.797 252.943 416.733C258.88 415.797 261.38 414.548 280.755 399.874C294.192 389.883 295.807 387.933 307.941 377.707C314.191 372.087 321.427 366.001 325.753 361.784C331.378 356.789 337.798 350.577 340.753 348.047C354.19 337.119 379.189 309.644 388.876 298.405C390.564 296.085 394.188 292.161 394.501 291.848C395.126 291.224 403.944 280.548 406.688 277.174C410.75 271.554 416.375 266.247 421.687 255.944C424.536 250.04 424.751 240.52 421.375 234.089C417.682 227.026 393.523 197.434 380.439 182.886C376.535 178.564 369.749 172.315 366.689 168.836C354.555 155.237 336.74 138.117 303.292 108.81C284.844 94.4272 268.898 82.1666 261.706 77.8556C253.894 73.1724 248.568 72.9867 241.693 76.1088ZM260.293 115.751C271.689 137.889 277.387 149.486 278.125 151.594C278.653 153.176 278.02 153.492 273.694 153.492C265.569 153.492 266.519 150.435 264.092 188.281C263.459 197.875 262.72 208.101 262.298 211.053C262.298 215.692 262.005 216.941 262.63 218.189C264.424 219.665 280.974 220.33 282.557 219.17C284.14 218.01 290.365 201.986 290.365 199.034C290.365 197.137 289.732 196.715 287.305 196.715C283.19 196.715 277.703 195.555 277.703 194.712C277.703 194.29 279.603 192.604 282.029 190.811C284.351 189.125 288.149 186.278 290.365 184.591C302.605 175.103 313.473 167.302 316.639 165.615C316.639 165.615 319.84 163.547 320.226 163.823C320.612 164.099 320.543 164.561 320.226 166.143C319.909 167.724 319.91 168.251 319.91 168.251C319.487 170.781 318.327 174.366 317.799 176.158C317.272 177.844 315.478 183.854 313.79 189.336C312.101 194.817 309.569 203.357 308.303 208.312C303.449 226.655 298.068 242.785 296.591 243.733C296.063 244.05 290.154 243.523 283.296 242.574C276.543 241.73 268.734 240.992 265.991 240.992C261.137 240.992 261.032 240.992 260.399 244.893C260.082 247.107 259.449 263.026 259.133 280.21L258.71 310.571H262.403C277.176 310.044 302.288 305.195 313.473 299.713C320.754 296.128 326.24 290.014 326.24 285.586C327.296 281.053 319.108 275.4 313.473 272.619C312.629 272.202 311.758 270.759 308.566 272.619C302.317 276.261 303.566 276.261 300.754 276.886C298.567 277.371 295.892 271.038 293.254 265.767C286.923 251.007 290.738 252.426 296.591 253.157C300.811 253.684 326.573 262.406 327.628 263.46C328.462 264.294 326.378 264.397 324.503 265.021C322.628 265.646 323.253 265.334 322.547 265.767C321.841 266.2 324.341 267.243 325.291 267.875C337.847 275.676 340.485 279.471 340.485 287.589C340.485 291.595 339.957 293.704 335.315 298.869C324.658 309.728 305.559 317.423 273.483 321.113C265.569 322.024 258.686 322.781 257.631 322.781C257.631 323.308 257.128 334.186 256.495 348.102C254.506 399.585 253.568 399.585 251.693 400.21C245.756 401.146 247.318 399.585 245.626 378.252C245.31 367.394 244.677 350.105 244.36 339.773L243.569 322.469C243.569 322.469 237.319 322.032 234.969 321.64C232.62 321.249 232.652 321.354 230.749 321.113C228.846 320.872 226.95 320.692 223.785 320.165C220.619 319.638 214.816 318.583 210.701 317.951C203.631 316.686 199.727 315.842 190.653 313.523C182.845 311.52 165.54 303.93 161.214 300.556C154.778 295.707 152.14 291.173 152.14 285.059C152.14 278.207 154.567 273.463 160.581 268.191C169.55 260.496 191.18 250.48 198.883 250.48C199.094 250.48 204.581 252.589 208.591 255.224C212.706 257.86 217.032 260.39 218.403 261.023C219.67 261.55 221.252 262.604 220.725 263.553C219.67 264.712 218.72 265.978 209.118 269.035C200.677 271.565 196.456 273.99 191.497 278.734C179.363 290.541 187.804 299.924 217.032 306.881C221.147 307.83 226.001 308.463 228.111 308.99C230.116 309.411 231.276 309.517 235.497 310.044C239.718 310.571 242.778 310.571 242.778 310.571V298.658C242.672 292.228 242.144 276.625 241.511 264.185C241.511 264.185 241.511 242.574 240.245 241.52C238.979 240.465 234.969 240.988 234.969 240.988C234.969 240.988 224.101 241.625 217.243 242.574C209.118 243.733 203.842 244.155 203.737 243.417C202.26 241.52 196.351 222.438 193.713 211.474C192.869 207.679 191.708 204.095 191.286 202.513C190.237 198.583 184.533 180.691 181.895 171.203C180.101 159.817 179.574 160.665 189.176 167.829C192.938 170.637 197.042 174.049 197.195 174.155C198.567 175.103 200.149 176.158 202.26 177.739C204.37 179.32 205.953 180.48 206.48 180.902C209.178 183.058 208.696 182.694 209.118 183.01C211.756 185.119 223.046 194.712 222.413 195.45C222.097 195.661 219.353 196.188 216.293 196.61C209.751 197.348 209.751 197.348 213.972 209.682C216.188 216.324 217.348 218.116 219.564 219.065C222.413 220.119 235.391 219.697 237.502 218.432C238.979 217.483 238.979 211.158 237.607 190.917C235.708 164.245 234.653 155.284 233.176 154.441C232.437 153.914 229.799 153.492 227.267 153.492H222.624L223.363 150.013C223.785 148.221 225.473 144.215 227.056 141.368C229.483 136.941 240.773 115.329 247.526 102.046C248.581 100.148 249.953 98.6723 250.586 98.8831C251.324 99.094 255.65 106.684 260.293 115.751Z" fill="#003C73"/>
</svg>
